<svg width="34" height="34" viewBox="0 0 34 34" fill="none" xmlns="http://www.w3.org/2000/svg">
<circle cx="17" cy="17" r="16.5" stroke="#8BAAAD"/>
<path d="M25.9349 21.0933C25.8108 20.7532 25.5718 20.5693 25.3006 20.4222C25.2501 20.3947 25.2041 20.3671 25.1627 20.3487C25.08 20.3073 24.9973 20.266 24.9145 20.2246C24.0688 19.7741 23.4069 19.2134 22.9518 18.5423C22.8231 18.3538 22.7082 18.1516 22.6163 17.9447C22.5749 17.8344 22.5795 17.7701 22.6071 17.7103C22.6347 17.6644 22.6715 17.6276 22.7174 17.5954C22.8645 17.4989 23.0116 17.4024 23.1127 17.338C23.292 17.2185 23.4391 17.1266 23.531 17.0622C23.8757 16.8186 24.1193 16.5612 24.271 16.2716C24.487 15.8672 24.5146 15.3937 24.3492 14.9663C24.1193 14.3595 23.5494 13.9872 22.8553 13.9872C22.7082 13.9872 22.5657 14.001 22.4186 14.0332C22.3819 14.0424 22.3405 14.0516 22.3037 14.0608C22.3083 13.6471 22.2991 13.2104 22.2624 12.7783C22.1337 11.2661 21.6005 10.4755 21.0489 9.84582C20.695 9.45053 20.2813 9.11499 19.8171 8.85299C18.9805 8.37496 18.029 8.13135 16.9948 8.13135C15.9606 8.13135 15.0138 8.37496 14.1772 8.85299C13.713 9.11499 13.2993 9.45053 12.9454 9.84582C12.3938 10.4755 11.8652 11.2707 11.7319 12.7783C11.6952 13.2104 11.686 13.6471 11.6906 14.0608C11.6538 14.0516 11.617 14.0424 11.5756 14.0332C11.4332 14.001 11.2861 13.9872 11.1436 13.9872C10.4495 13.9872 9.87956 14.3641 9.64973 14.9663C9.48426 15.3937 9.51184 15.8672 9.72787 16.2716C9.87956 16.5612 10.1232 16.8186 10.4679 17.0622C10.5598 17.1266 10.7023 17.2185 10.8862 17.338C10.9827 17.4024 11.1252 17.4943 11.2677 17.5862C11.3182 17.6184 11.3596 17.6598 11.3918 17.7103C11.4194 17.7701 11.424 17.8344 11.378 17.9539C11.2861 18.1562 11.1758 18.3538 11.0471 18.5377C10.6012 19.1904 9.9577 19.7466 9.13953 20.1924C8.70746 20.4222 8.25701 20.5739 8.06396 21.0933C7.92147 21.484 8.0134 21.9253 8.37652 22.3022C8.50982 22.4401 8.6661 22.5596 8.83616 22.6515C9.19009 22.8446 9.567 22.9962 9.96229 23.102C10.045 23.1249 10.1186 23.1571 10.1875 23.2031C10.3208 23.318 10.3024 23.4927 10.4771 23.7501C10.5644 23.8834 10.6793 23.9983 10.808 24.0902C11.1803 24.3476 11.5986 24.3614 12.0399 24.3798C12.4398 24.3936 12.8902 24.4119 13.4096 24.582C13.6257 24.651 13.8463 24.7889 14.1037 24.9497C14.7242 25.3312 15.5699 25.8506 16.9903 25.8506C18.4106 25.8506 19.2609 25.3266 19.886 24.9451C20.1434 24.7889 20.364 24.651 20.5709 24.582C21.0857 24.4119 21.5407 24.3936 21.9406 24.3798C22.3819 24.3614 22.8002 24.3476 23.1725 24.0902C23.3287 23.9799 23.4574 23.842 23.5494 23.6765C23.6781 23.4605 23.6735 23.3088 23.793 23.2031C23.8573 23.1571 23.9309 23.1249 24.0044 23.1066C24.3997 23.0008 24.7858 22.8492 25.1443 22.6515C25.3236 22.555 25.4891 22.4263 25.627 22.2746L25.6316 22.27C25.9901 21.9023 26.0774 21.4702 25.9349 21.0933ZM24.6755 21.769C23.9079 22.1919 23.3931 22.1459 22.9978 22.4033C22.6577 22.6193 22.8599 23.0882 22.6163 23.2582C22.3129 23.4651 21.4212 23.2444 20.2721 23.626C19.3206 23.9385 18.7185 24.844 17.0086 24.844C15.2988 24.844 14.7104 23.9431 13.7452 23.626C12.5961 23.2444 11.7043 23.4697 11.401 23.2582C11.1574 23.0882 11.355 22.6193 11.0195 22.4033C10.6196 22.1459 10.1094 22.1919 9.34177 21.769C8.84995 21.4978 9.13034 21.3323 9.29121 21.2542C12.0767 19.9074 12.5225 17.8252 12.5409 17.669C12.5639 17.4805 12.5915 17.3334 12.3846 17.145C12.187 16.9611 11.3045 16.4141 11.0562 16.2441C10.6518 15.9591 10.4725 15.6787 10.6058 15.3294C10.6977 15.0904 10.9229 14.9984 11.1574 14.9984C11.2309 14.9984 11.3045 15.0076 11.378 15.0214C11.8239 15.1179 12.2559 15.3386 12.5041 15.4029C12.5363 15.4121 12.5639 15.4167 12.5961 15.4167C12.7293 15.4167 12.7753 15.3478 12.7661 15.1961C12.7385 14.7089 12.6696 13.762 12.7477 12.8749C12.8535 11.6568 13.2442 11.0501 13.713 10.5169C13.9382 10.2595 14.9908 9.14716 17.0086 9.14716C19.0265 9.14716 20.0791 10.2549 20.3043 10.5123C20.7731 11.0455 21.1638 11.6522 21.2695 12.8703C21.3477 13.7574 21.2787 14.7043 21.2466 15.1915C21.2374 15.3524 21.2833 15.4121 21.4166 15.4121C21.4488 15.4121 21.4764 15.4075 21.5086 15.3983C21.7568 15.3386 22.1888 15.1133 22.6347 15.0168C22.7082 14.9984 22.7818 14.9938 22.8553 14.9938C23.0897 14.9938 23.315 15.0858 23.4069 15.3248C23.5402 15.6741 23.3609 15.9545 22.9564 16.2395C22.7128 16.4095 21.8303 16.9565 21.6281 17.1404C21.4212 17.3288 21.4488 17.4759 21.4718 17.6644C21.4902 17.8206 21.936 19.9028 24.7215 21.2496C24.8869 21.3277 25.1627 21.4978 24.6755 21.769Z" fill="#F7F6F2"/>
</svg>
