<svg width="34" height="34" viewBox="0 0 34 34" fill="none" xmlns="http://www.w3.org/2000/svg">
<circle cx="17" cy="17" r="16.5" stroke="#8BAAAD"/>
<g clip-path="url(#clip0_15072_10242)">
<path d="M24.6676 8H9.32891C8.59414 8 8 8.58008 8 9.29727V24.6992C8 25.4164 8.59414 26 9.32891 26H24.6676C25.4023 26 26 25.4164 26 24.7027V9.29727C26 8.58008 25.4023 8 24.6676 8ZM13.3402 23.3387H10.6684V14.7465H13.3402V23.3387ZM12.0043 13.5758C11.1465 13.5758 10.4539 12.8832 10.4539 12.0289C10.4539 11.1746 11.1465 10.482 12.0043 10.482C12.8586 10.482 13.5512 11.1746 13.5512 12.0289C13.5512 12.8797 12.8586 13.5758 12.0043 13.5758ZM23.3387 23.3387H20.6703V19.1621C20.6703 18.1672 20.6527 16.884 19.2816 16.884C17.893 16.884 17.682 17.9703 17.682 19.0918V23.3387H15.0172V14.7465H17.5766V15.9207H17.6117C17.9668 15.2457 18.8387 14.532 20.1359 14.532C22.8395 14.532 23.3387 16.3109 23.3387 18.6242V23.3387V23.3387Z" fill="#F7F6F2"/>
</g>
<defs>
<clipPath id="clip0_15072_10242">
<rect width="18" height="18" fill="white" transform="translate(8 8)"/>
</clipPath>
</defs>
</svg>
