<svg width="34" height="34" viewBox="0 0 34 34" fill="none" xmlns="http://www.w3.org/2000/svg">
<circle cx="17" cy="17" r="16.5" stroke="#8BAAAD"/>
<path d="M25.8207 13.4001C25.8207 13.4001 25.6449 12.1591 25.1035 11.6142C24.418 10.897 23.6516 10.8935 23.3 10.8513C20.7828 10.6685 17.0035 10.6685 17.0035 10.6685H16.9965C16.9965 10.6685 13.2172 10.6685 10.7 10.8513C10.3484 10.8935 9.58203 10.897 8.89648 11.6142C8.35508 12.1591 8.18281 13.4001 8.18281 13.4001C8.18281 13.4001 8 14.8591 8 16.3146V17.6786C8 19.1341 8.1793 20.5931 8.1793 20.5931C8.1793 20.5931 8.35508 21.8341 8.89297 22.379C9.57852 23.0962 10.4785 23.0716 10.8793 23.1489C12.3207 23.286 17 23.3282 17 23.3282C17 23.3282 20.7828 23.3212 23.3 23.1419C23.6516 23.0997 24.418 23.0962 25.1035 22.379C25.6449 21.8341 25.8207 20.5931 25.8207 20.5931C25.8207 20.5931 26 19.1376 26 17.6786V16.3146C26 14.8591 25.8207 13.4001 25.8207 13.4001ZM15.1402 19.3345V14.2755L20.0023 16.8138L15.1402 19.3345Z" fill="#F7F6F2"/>
</svg>
